{
  "accessors": [
    {
      "bufferView": 2,
      "componentType": 5126,
      "count": 17918,
      "max": [
        20.552043914794922,
        10.620863914489746,
        4.792584419250488
      ],
      "min": [
        -9.52053165435791,
        -10.620863914489746,
        -1.0
      ],
      "type": "VEC3"
    },
    {
      "bufferView": 2,
      "byteOffset": 215016,
      "componentType": 5126,
      "count": 17918,
      "max": [
        1.0,
        1.0,
        1.0
      ],
      "min": [
        -1.0,
        -1.0,
        -1.0
      ],
      "type": "VEC3"
    },
    {
      "bufferView": 3,
      "componentType": 5126,
      "count": 17918,
      "max": [
        1.0,
        1.0,
        1.0,
        1.0
      ],
      "min": [
        -1.0,
        -1.0,
        -1.0,
        -1.0
      ],
      "type": "VEC4"
    },
    {
      "bufferView": 1,
      "componentType": 5126,
      "count": 17918,
      "max": [
        1.0,
        0.9999359250068665
      ],
      "min": [
        -1.7229961457587706e-08,
        -2.4917728325135613e-08
      ],
      "type": "VEC2"
    },
    {
      "bufferView": 1,
      "byteOffset": 143344,
      "componentType": 5126,
      "count": 17918,
      "max": [
        1.0,
        0.9999359250068665
      ],
      "min": [
        -1.7229961457587706e-08,
        -2.4917728325135613e-08
      ],
      "type": "VEC2"
    },
    {
      "bufferView": 1,
      "byteOffset": 286688,
      "componentType": 5126,
      "count": 17918,
      "max": [
        1.0,
        0.9999359250068665
      ],
      "min": [
        -1.7229961457587706e-08,
        -2.4917728325135613e-08
      ],
      "type": "VEC2"
    },
    {
      "bufferView": 0,
      "componentType": 5125,
      "count": 52737,
      "type": "SCALAR"
    },
    {
      "bufferView": 2,
      "byteOffset": 430032,
      "componentType": 5126,
      "count": 652,
      "max": [
        0.09685325622558594,
        3.2709240913391113,
        1.0675908327102661
      ],
      "min": [
        -3.057330846786499,
        -3.2709240913391113,
        -1.0604228973388672
      ],
      "type": "VEC3"
    },
    {
      "bufferView": 2,
      "byteOffset": 437856,
      "componentType": 5126,
      "count": 652,
      "max": [
        1.0,
        1.0,
        1.0
      ],
      "min": [
        -1.0,
        -1.0,
        -0.9999926686286926
      ],
      "type": "VEC3"
    },
    {
      "bufferView": 3,
      "byteOffset": 286688,
      "componentType": 5126,
      "count": 652,
      "max": [
        0.9807869791984558,
        0.9999926686286926,
        1.0,
        1.0
      ],
      "min": [
        -0.8314787745475769,
        -1.0,
        -1.0,
        1.0
      ],
      "type": "VEC4"
    },
    {
      "bufferView": 1,
      "byteOffset": 430032,
      "componentType": 5126,
      "count": 652,
      "max": [
        0.9986701607704163,
        0.9987194538116455
      ],
      "min": [
        0.04386305436491966,
        1.1596134052993534e-09
      ],
      "type": "VEC2"
    },
    {
      "bufferView": 1,
      "byteOffset": 435248,
      "componentType": 5126,
      "count": 652,
      "max": [
        0.9986701607704163,
        0.9987194538116455
      ],
      "min": [
        0.04386305436491966,
        1.1596134052993534e-09
      ],
      "type": "VEC2"
    },
    {
      "bufferView": 1,
      "byteOffset": 440464,
      "componentType": 5126,
      "count": 652,
      "max": [
        0.9986701607704163,
        0.9987194538116455
      ],
      "min": [
        0.04386305436491966,
        1.1596134052993534e-09
      ],
      "type": "VEC2"
    },
    {
      "bufferView": 0,
      "byteOffset": 210948,
      "componentType": 5125,
      "count": 1944,
      "type": "SCALAR"
    },
    {
      "bufferView": 2,
      "byteOffset": 445680,
      "componentType": 5126,
      "count": 353,
      "max": [
        13.143205642700195,
        0.6051766276359558,
        0.592231273651123
      ],
      "min": [
        11.068156242370605,
        -0.6051766276359558,
        -1.1899428367614746
      ],
      "type": "VEC3"
    },
    {
      "bufferView": 2,
      "byteOffset": 449916,
      "componentType": 5126,
      "count": 353,
      "max": [
        0.999999463558197,
        0.9999998211860657,
        0.9999991059303284
      ],
      "min": [
        -0.999999463558197,
        -0.9999998211860657,
        -1.0
      ],
      "type": "VEC3"
    },
    {
      "bufferView": 3,
      "byteOffset": 297120,
      "componentType": 5126,
      "count": 353,
      "max": [
        0.9999991059303284,
        1.0,
        0.9999995231628418,
        1.0
      ],
      "min": [
        -0.9999991059303284,
        -1.0,
        -0.9998719692230225,
        1.0
      ],
      "type": "VEC4"
    },
    {
      "bufferView": 1,
      "byteOffset": 445680,
      "componentType": 5126,
      "count": 353,
      "max": [
        0.9713403582572937,
        0.993469774723053
      ],
      "min": [
        0.029713040217757225,
        0.060893431305885315
      ],
      "type": "VEC2"
    },
    {
      "bufferView": 1,
      "byteOffset": 448504,
      "componentType": 5126,
      "count": 353,
      "max": [
        0.9713403582572937,
        0.993469774723053
      ],
      "min": [
        0.029713040217757225,
        0.060893431305885315
      ],
      "type": "VEC2"
    },
    {
      "bufferView": 1,
      "byteOffset": 451328,
      "componentType": 5126,
      "count": 353,
      "max": [
        0.9713403582572937,
        0.993469774723053
      ],
      "min": [
        0.029713040217757225,
        0.060893431305885315
      ],
      "type": "VEC2"
    },
    {
      "bufferView": 0,
      "byteOffset": 218724,
      "componentType": 5125,
      "count": 924,
      "type": "SCALAR"
    }
  ],
  "asset": {
    "extras": {
      "author": "pirate8888 (https://sketchfab.com/pirate8888)",
      "license": "CC-BY-4.0 (http://creativecommons.org/licenses/by/4.0/)",
      "source": "https://sketchfab.com/3d-models/space-fighter-7862be0a14a4455cb51e78db16c13ba7",
      "title": "Space Fighter"
    },
    "generator": "Sketchfab-16.8.0",
    "version": "2.0"
  },
  "bufferViews": [
    {
      "buffer": 0,
      "byteLength": 222420,
      "name": "floatBufferViews",
      "target": 34963
    },
    {
      "buffer": 0,
      "byteLength": 454152,
      "byteOffset": 222420,
      "byteStride": 8,
      "name": "floatBufferViews",
      "target": 34962
    },
    {
      "buffer": 0,
      "byteLength": 454152,
      "byteOffset": 676572,
      "byteStride": 12,
      "name": "floatBufferViews",
      "target": 34962
    },
    {
      "buffer": 0,
      "byteLength": 302768,
      "byteOffset": 1130724,
      "byteStride": 16,
      "name": "floatBufferViews",
      "target": 34962
    }
  ],
  "buffers": [
    {
      "byteLength": 1433492,
      "uri": "scene.bin"
    }
  ],
  "images": [
    {
      "uri": "textures/Material_baseColor.png"
    },
    {
      "uri": "textures/Material_metallicRoughness.png"
    },
    {
      "uri": "textures/Material_normal.png"
    }
  ],
  "materials": [
    {
      "doubleSided": true,
      "name": "Material",
      "normalTexture": {
        "index": 2,
        "texCoord": 1
      },
      "pbrMetallicRoughness": {
        "baseColorTexture": {
          "index": 0
        },
        "metallicRoughnessTexture": {
          "index": 1
        }
      }
    }
  ],
  "meshes": [
    {
      "name": "Cube.006_Material_0",
      "primitives": [
        {
          "attributes": {
            "NORMAL": 1,
            "POSITION": 0,
            "TANGENT": 2,
            "TEXCOORD_0": 3,
            "TEXCOORD_1": 4,
            "TEXCOORD_2": 5
          },
          "indices": 6,
          "material": 0,
          "mode": 4
        }
      ]
    },
    {
      "name": "Cube.007_Material_0",
      "primitives": [
        {
          "attributes": {
            "NORMAL": 8,
            "POSITION": 7,
            "TANGENT": 9,
            "TEXCOORD_0": 10,
            "TEXCOORD_1": 11,
            "TEXCOORD_2": 12
          },
          "indices": 13,
          "material": 0,
          "mode": 4
        }
      ]
    },
    {
      "name": "Cube.008_Material_0",
      "primitives": [
        {
          "attributes": {
            "NORMAL": 15,
            "POSITION": 14,
            "TANGENT": 16,
            "TEXCOORD_0": 17,
            "TEXCOORD_1": 18,
            "TEXCOORD_2": 19
          },
          "indices": 20,
          "material": 0,
          "mode": 4
        }
      ]
    }
  ],
  "nodes": [
    {
      "children": [
        1
      ],
      "matrix": [
        1.0,
        0.0,
        0.0,
        0.0,
        0.0,
        2.220446049250313e-16,
        -1.0,
        0.0,
        0.0,
        1.0,
        2.220446049250313e-16,
        0.0,
        0.0,
        0.0,
        0.0,
        1.0
      ],
      "name": "Sketchfab_model"
    },
    {
      "children": [
        2
      ],
      "matrix": [
        0.009999999776482582,
        0.0,
        0.0,
        0.0,
        0.0,
        0.0,
        0.009999999776482582,
        0.0,
        0.0,
        -0.009999999776482582,
        0.0,
        0.0,
        0.0,
        0.0,
        0.0,
        1.0
      ],
      "name": "SpaceFighter.fbx"
    },
    {
      "children": [
        3
      ],
      "name": "RootNode"
    },
    {
      "children": [
        4,
        5,
        7
      ],
      "matrix": [
        1.9470718848335622e-05,
        0.0,
        99.99999999999811,
        0.0,
        99.99999999999679,
        -1.6292067961387602e-05,
        -1.9470718859437852e-05,
        0.0,
        1.6292067955836487e-05,
        99.99999999999869,
        -3.197442310920451e-12,
        0.0,
        0.0,
        2.9802322387695313e-06,
        0.0,
        1.0
      ],
      "name": "Cube.006"
    },
    {
      "mesh": 0,
      "name": "Cube.006_Material_0"
    },
    {
      "children": [
        6
      ],
      "matrix": [
        1.0,
        -2.646977960169689e-23,
        -6.310887241768095e-30,
        0.0,
        2.646977960169689e-23,
        1.0,
        3.5478996003359815e-23,
        0.0,
        6.310887241768094e-30,
        -3.5478996003359815e-23,
        1.0,
        0.0,
        -1.5407439165873225e-37,
        -5.933259526438796e-25,
        -0.05899525061249733,
        1.0
      ],
      "name": "Cube.007"
    },
    {
      "mesh": 1,
      "name": "Cube.007_Material_0"
    },
    {
      "children": [
        8
      ],
      "matrix": [
        1.0,
        -2.646977960169689e-23,
        -6.310887241768095e-30,
        0.0,
        2.646977960169689e-23,
        1.0,
        3.5478996003359815e-23,
        0.0,
        6.310887241768094e-30,
        -3.5478996003359815e-23,
        1.0,
        0.0,
        3.400470167023682e-38,
        7.888609052210118e-31,
        -2.9802322387695313e-08,
        1.0
      ],
      "name": "Cube.008"
    },
    {
      "mesh": 2,
      "name": "Cube.008_Material_0"
    }
  ],
  "samplers": [
    {
      "magFilter": 9729,
      "minFilter": 9987,
      "wrapS": 10497,
      "wrapT": 10497
    }
  ],
  "scene": 0,
  "scenes": [
    {
      "name": "Sketchfab_Scene",
      "nodes": [
        0
      ]
    }
  ],
  "textures": [
    {
      "sampler": 0,
      "source": 0
    },
    {
      "sampler": 0,
      "source": 1
    },
    {
      "sampler": 0,
      "source": 2
    }
  ]
}
